<svg width="19" height="18" viewBox="0 0 19 18" fill="none" xmlns="http://www.w3.org/2000/svg">
<path fill-rule="evenodd" clip-rule="evenodd" d="M9.6001 1.6875C5.56152 1.6875 2.2876 4.96142 2.2876 9C2.2876 13.0386 5.56152 16.3125 9.6001 16.3125C13.6387 16.3125 16.9126 13.0386 16.9126 9C16.9126 4.96142 13.6387 1.6875 9.6001 1.6875ZM7.63135 6.1875C7.22584 6.1875 7.01015 6.50161 6.92936 6.66319C6.83174 6.85843 6.7876 7.08878 6.7876 7.3125C6.7876 7.53622 6.83174 7.76657 6.92936 7.96181C7.01015 8.12339 7.22584 8.4375 7.63135 8.4375C8.03685 8.4375 8.25254 8.12339 8.33334 7.96181C8.43095 7.76657 8.4751 7.53622 8.4751 7.3125C8.4751 7.08878 8.43095 6.85843 8.33334 6.66319C8.25254 6.50161 8.03685 6.1875 7.63135 6.1875ZM10.8669 6.66319C10.9477 6.50161 11.1633 6.1875 11.5688 6.1875C11.9744 6.1875 12.19 6.50161 12.2708 6.66319C12.3685 6.85843 12.4126 7.08878 12.4126 7.3125C12.4126 7.53622 12.3685 7.76657 12.2708 7.96181C12.19 8.12339 11.9744 8.4375 11.5688 8.4375C11.1633 8.4375 10.9477 8.12339 10.8669 7.96181C10.7692 7.76657 10.7251 7.53622 10.7251 7.3125C10.7251 7.08878 10.7692 6.85843 10.8669 6.66319ZM12.3843 11.7842C12.604 11.5646 12.604 11.2084 12.3843 10.9888C12.1647 10.7691 11.8085 10.7691 11.5888 10.9888C10.4905 12.0871 8.70971 12.0871 7.61136 10.9888C7.39169 10.7691 7.03553 10.7691 6.81587 10.9888C6.59619 11.2084 6.59619 11.5646 6.81587 11.7842C8.35355 13.3219 10.8466 13.3219 12.3843 11.7842Z" fill="#CED2D6"/>
</svg>
