<svg width="19" height="18" viewBox="0 0 19 18" fill="none" xmlns="http://www.w3.org/2000/svg">
<path fill-rule="evenodd" clip-rule="evenodd" d="M4.23625 2.07825C5.98724 1.8208 7.77832 1.6875 9.60019 1.6875C11.4219 1.6875 13.2128 1.82077 14.9637 2.07818C16.4474 2.29633 17.475 3.59584 17.475 5.05542V9.56959C17.475 11.0292 16.4474 12.3287 14.9637 12.5468C14.104 12.6732 13.2348 12.7697 12.3569 12.8351C12.2636 12.8421 12.1823 12.8906 12.1343 12.9626L10.068 16.062C9.96368 16.2185 9.78805 16.3125 9.59998 16.3125C9.4119 16.3125 9.23627 16.2185 9.13195 16.062L7.06567 12.9626C7.01765 12.8906 6.93637 12.842 6.84303 12.8351C5.96516 12.7696 5.09587 12.6731 4.23624 12.5467C2.75251 12.3286 1.72498 11.0291 1.72498 9.56951V5.05548C1.72498 3.59591 2.75251 2.29641 4.23625 2.07825ZM5.66248 6.1875C5.66248 5.87684 5.91432 5.625 6.22498 5.625H12.975C13.2856 5.625 13.5375 5.87684 13.5375 6.1875C13.5375 6.49816 13.2856 6.75 12.975 6.75H6.22498C5.91432 6.75 5.66248 6.49816 5.66248 6.1875ZM6.22498 7.875C5.91432 7.875 5.66248 8.12684 5.66248 8.4375C5.66248 8.74816 5.91432 9 6.22498 9H9.59998C9.91063 9 10.1625 8.74816 10.1625 8.4375C10.1625 8.12684 9.91063 7.875 9.59998 7.875H6.22498Z" fill="#CED2D6"/>
</svg>
