<svg width="19" height="18" viewBox="0 0 19 18" fill="none" xmlns="http://www.w3.org/2000/svg">
<path fill-rule="evenodd" clip-rule="evenodd" d="M9.59998 1.6875C5.56139 1.6875 2.28748 4.96142 2.28748 9C2.28748 13.0386 5.56139 16.3125 9.59998 16.3125C13.6386 16.3125 16.9125 13.0386 16.9125 9C16.9125 4.96142 13.6386 1.6875 9.59998 1.6875ZM7.63123 6.1875C7.22572 6.1875 7.01003 6.50161 6.92924 6.66319C6.83162 6.85843 6.78748 7.08878 6.78748 7.3125C6.78748 7.53622 6.83162 7.76657 6.92924 7.96181C7.01003 8.12339 7.22572 8.4375 7.63123 8.4375C8.03673 8.4375 8.25242 8.12339 8.33321 7.96181C8.43083 7.76657 8.47498 7.53622 8.47498 7.3125C8.47498 7.08878 8.43083 6.85843 8.33321 6.66319C8.25242 6.50161 8.03673 6.1875 7.63123 6.1875ZM10.8667 6.66319C10.9475 6.50161 11.1632 6.1875 11.5687 6.1875C11.9742 6.1875 12.1899 6.50161 12.2707 6.66319C12.3683 6.85843 12.4125 7.08878 12.4125 7.3125C12.4125 7.53622 12.3683 7.76657 12.2707 7.96181C12.1899 8.12339 11.9742 8.4375 11.5687 8.4375C11.1632 8.4375 10.9475 8.12339 10.8667 7.96181C10.7691 7.76657 10.725 7.53622 10.725 7.3125C10.725 7.08878 10.7691 6.85843 10.8667 6.66319ZM12.3842 11.7842C12.6039 11.5646 12.6039 11.2084 12.3842 10.9888C12.1645 10.7691 11.8084 10.7691 11.5887 10.9888C10.4904 12.0871 8.70959 12.0871 7.61124 10.9888C7.39157 10.7691 7.03541 10.7691 6.81574 10.9888C6.59607 11.2084 6.59607 11.5646 6.81574 11.7842C8.35343 13.3219 10.8465 13.3219 12.3842 11.7842Z" fill="#CED2D6"/>
</svg>
