<svg width="19" height="18" viewBox="0 0 19 18" fill="none" xmlns="http://www.w3.org/2000/svg">
<path fill-rule="evenodd" clip-rule="evenodd" d="M4.23637 2.07825C5.98736 1.8208 7.77844 1.6875 9.60031 1.6875C11.422 1.6875 13.2129 1.82077 14.9638 2.07818C16.4475 2.29633 17.4751 3.59584 17.4751 5.05542V9.56959C17.4751 11.0292 16.4475 12.3287 14.9638 12.5468C14.1042 12.6732 13.2349 12.7697 12.357 12.8351C12.2637 12.8421 12.1824 12.8906 12.1344 12.9626L10.0681 16.062C9.9638 16.2185 9.78817 16.3125 9.6001 16.3125C9.41202 16.3125 9.23639 16.2185 9.13207 16.062L7.06579 12.9626C7.01777 12.8906 6.93649 12.842 6.84316 12.8351C5.96528 12.7696 5.09599 12.6731 4.23636 12.5467C2.75263 12.3286 1.7251 11.0291 1.7251 9.56951V5.05548C1.7251 3.59591 2.75263 2.29641 4.23637 2.07825ZM5.6626 6.1875C5.6626 5.87684 5.91444 5.625 6.2251 5.625H12.9751C13.2858 5.625 13.5376 5.87684 13.5376 6.1875C13.5376 6.49816 13.2858 6.75 12.9751 6.75H6.2251C5.91444 6.75 5.6626 6.49816 5.6626 6.1875ZM6.2251 7.875C5.91444 7.875 5.6626 8.12684 5.6626 8.4375C5.6626 8.74816 5.91444 9 6.2251 9H9.6001C9.91076 9 10.1626 8.74816 10.1626 8.4375C10.1626 8.12684 9.91076 7.875 9.6001 7.875H6.2251Z" fill="#CED2D6"/>
</svg>
