<svg width="522" height="122" viewBox="0 0 522 122" fill="none" xmlns="http://www.w3.org/2000/svg">
<g clip-path="url(#clip0_8_6968)">
<path d="M42.3328 85.3847L49.3961 73.2109L42.3328 60.998L56.4438 36.5996H84.666L98.7771 60.998L84.666 85.4004L42.3328 85.2791L35.2851 97.6133L91.7215 97.6015L112.888 60.998L91.7215 24.3984H49.3883L28.2217 60.998L42.3328 85.3847Z" fill="#DAB5FF"/>
<path d="M35.2855 97.6133L14.1111 60.998L42.3332 12.2012H98.7775L127 60.998L98.7775 109.799L28.2221 109.791L21.1666 122H105.833L141.111 60.998L105.833 0H35.2777L0 60.998L28.2221 109.791L35.2855 97.6133Z" fill="#DAB5FF"/>
<path d="M169.333 97.6016V24.3984H195.979C203.964 24.3984 210.643 26.0302 216.013 29.2977C221.383 32.5613 225.413 36.9635 228.098 42.4967C230.783 48.0299 232.127 54.1657 232.127 60.9002C232.127 68.3234 230.646 74.784 227.686 80.282C224.727 85.78 220.544 90.0414 215.139 93.0662C209.734 96.0911 203.349 97.6016 195.979 97.6016H169.333ZM217.769 60.8963C217.769 56.1536 216.907 51.9783 215.186 48.3703C213.465 44.7624 210.984 41.945 207.75 39.914C204.513 37.887 200.589 36.8735 195.976 36.8735H183.581V85.1265H195.976C200.726 85.1265 204.701 84.0621 207.903 81.9294C211.106 79.8007 213.548 76.9128 215.237 73.2697C216.923 69.6265 217.769 65.5021 217.769 60.8963Z" fill="white"/>
<path d="M298.112 85.1265V97.6016H247.199V24.3984H297.183V36.8735H261.451V54.5022H292.229V66.0499H261.451V85.1226H298.112V85.1265Z" fill="white"/>
<path d="M320.725 24.3984L340.555 80.7946L360.076 24.3984H375.049L347.372 97.6016H333.637L305.752 24.3984H320.725Z" fill="white"/>
<path d="M415.426 98.1182C410.056 98.1182 405.204 97.089 400.864 95.0268C396.525 92.9646 392.774 90.1667 389.607 86.6253C386.44 83.0878 383.994 79.1003 382.273 74.6667C380.552 70.2331 379.69 65.6821 379.69 61.0059C379.69 56.3297 380.603 51.4696 382.426 47.036C384.249 42.6024 386.765 38.6501 389.964 35.1792C393.166 31.7082 396.968 28.9612 401.374 26.9303C405.78 24.9033 410.566 23.8898 415.728 23.8898C420.89 23.8898 425.865 24.9581 430.239 27.0868C434.609 29.2195 438.345 32.0721 441.445 35.6448C444.542 39.2215 446.937 43.205 448.623 47.6034C450.308 52.0018 451.155 56.541 451.155 61.2133C451.155 65.8856 450.277 70.6479 448.521 75.0815C446.765 79.5151 444.287 83.4674 441.085 86.9383C437.882 90.4093 434.096 93.1406 429.726 95.1363C425.351 97.132 420.585 98.126 415.422 98.126L415.426 98.1182ZM394.15 61.002C394.15 64.1638 394.632 67.2239 395.596 70.1783C396.561 73.1327 397.952 75.7624 399.779 78.0672C401.601 80.3721 403.84 82.1917 406.493 83.53C409.143 84.8722 412.157 85.5413 415.532 85.5413C418.907 85.5413 422.106 84.837 424.724 83.4282C427.338 82.0195 429.561 80.1451 431.384 77.809C433.206 75.4728 434.566 72.8275 435.464 69.8692C436.358 66.9148 436.808 63.9603 436.808 61.002C436.808 57.8402 436.326 54.7997 435.362 51.8766C434.398 48.9574 432.987 46.3434 431.129 44.0425C429.271 41.7415 427.033 39.918 424.414 38.5797C421.796 37.2375 418.801 36.5683 415.43 36.5683C412.059 36.5683 409.045 37.2727 406.395 38.6814C403.745 40.0902 401.507 41.945 399.681 44.2498C397.854 46.5547 396.478 49.1648 395.549 52.084C394.62 55.0071 394.154 57.9771 394.154 61.002H394.15Z" fill="white"/>
<path d="M470.259 24.3984L488.333 51.5126L506.509 24.3984H522L496.596 61.5146L521.177 97.6016H505.686L488.337 71.5166L471.09 97.6016H455.494L480.074 61.5146L454.67 24.3984H470.267H470.259Z" fill="white"/>
</g>
<defs>
<clipPath id="clip0_8_6968">
<rect width="522" height="122" fill="white"/>
</clipPath>
</defs>
</svg>
