<svg width="128" height="112" viewBox="0 0 128 112" fill="none" xmlns="http://www.w3.org/2000/svg">
<path fill-rule="evenodd" clip-rule="evenodd" d="M34 4H94L124 56.0483L94 108.097H22L28.01 97.7057L4 56.0483L34 4ZM40 97.689H88V97.6923L112 56.0517L88 14.411H40L16 56.0483L34.0067 87.2914L28 97.679H39.9933L40 97.689ZM82 87.2814H51.8833L51.8967 87.2947H34.0067L39.9967 76.8637L28 56.0517L46 24.822H82L100 56.0517L82 87.2814ZM52 35.233L40 56.0517L46.0067 66.4727L40 76.857H51.9933L52 76.8704H76L88 56.0517L76 35.233H52Z" fill="white"/>
</svg>
