<svg width="36" height="36" viewBox="0 0 36 36" fill="none" xmlns="http://www.w3.org/2000/svg">
<path fill-rule="evenodd" clip-rule="evenodd" d="M10.8 8.55C10.8 7.80442 11.4045 7.2 12.1501 7.2H31.0501C31.7956 7.2 32.4001 7.80442 32.4001 8.55C32.4001 9.29558 31.7956 9.9 31.0501 9.9H12.1501C11.4045 9.9 10.8 9.29558 10.8 8.55ZM10.8 18C10.8 17.2544 11.4045 16.65 12.1501 16.65H31.0501C31.7956 16.65 32.4001 17.2544 32.4001 18C32.4001 18.7456 31.7956 19.35 31.0501 19.35H12.1501C11.4045 19.35 10.8 18.7456 10.8 18ZM10.8 27.45C10.8 26.7044 11.4045 26.1 12.1501 26.1H31.0501C31.7956 26.1 32.4001 26.7044 32.4001 27.45C32.4001 28.1956 31.7956 28.8 31.0501 28.8H12.1501C11.4045 28.8 10.8 28.1956 10.8 27.45Z" fill="#CED2D6"/>
<path fill-rule="evenodd" clip-rule="evenodd" d="M3.58203 8.55C3.58203 7.55589 4.38792 6.75 5.38203 6.75H5.40003C6.39414 6.75 7.20003 7.55589 7.20003 8.55V8.568C7.20003 9.56211 6.39414 10.368 5.40003 10.368H5.38203C4.38792 10.368 3.58203 9.56211 3.58203 8.568V8.55Z" fill="#CED2D6"/>
<path fill-rule="evenodd" clip-rule="evenodd" d="M3.58203 27.45C3.58203 26.4559 4.38792 25.65 5.38203 25.65H5.40003C6.39414 25.65 7.20003 26.4559 7.20003 27.45V27.468C7.20003 28.4621 6.39414 29.268 5.40003 29.268H5.38203C4.38792 29.268 3.58203 28.4621 3.58203 27.468V27.45Z" fill="#CED2D6"/>
<path fill-rule="evenodd" clip-rule="evenodd" d="M3.58203 18C3.58203 17.0059 4.38792 16.2 5.38203 16.2H5.40003C6.39414 16.2 7.20003 17.0059 7.20003 18V18.018C7.20003 19.0121 6.39414 19.818 5.40003 19.818H5.38203C4.38792 19.818 3.58203 19.0121 3.58203 18.018V18Z" fill="#CED2D6"/>
</svg>
