<svg width="19" height="18" viewBox="0 0 19 18" fill="none" xmlns="http://www.w3.org/2000/svg">
<path fill-rule="evenodd" clip-rule="evenodd" d="M16.7999 9.00005C16.7999 12.9765 13.5764 16.2 9.5999 16.2C5.62345 16.2 2.3999 12.9765 2.3999 9.00005C2.3999 5.0236 5.62345 1.80005 9.5999 1.80005C13.5764 1.80005 16.7999 5.0236 16.7999 9.00005ZM10.9499 14.6935C10.5165 14.7959 10.0645 14.85 9.5999 14.85C7.78489 14.85 6.16294 14.0235 5.08992 12.7262L5.53144 11.8432C5.63391 11.6383 5.89283 11.5695 6.08348 11.6966L6.34838 11.8732C6.70241 12.1092 7.17381 12.0625 7.47467 11.7617C7.71374 11.5226 7.79722 11.169 7.69031 10.8482L7.51236 10.3144C7.47671 10.2074 7.52513 10.0906 7.62597 10.0401L9.40207 9.15208C9.85607 8.92508 10.0084 8.35153 9.72683 7.92919C9.59347 7.72915 9.70587 7.45777 9.94163 7.41062L10.0541 7.38811C10.821 7.23475 11.4468 6.68224 11.6941 5.94034L11.7389 5.8062C11.8467 5.48279 11.7625 5.12624 11.5214 4.88519L10.1817 3.54545C10.0973 3.46106 10.0499 3.3466 10.0499 3.22726V3.1671C13.0705 3.39688 15.4499 5.9206 15.4499 9.00005C15.4499 9.88407 15.2538 10.7223 14.9028 11.4736C14.7262 11.3516 14.517 11.2733 14.2907 11.2545L13.7817 10.7455C13.5285 10.4923 13.1852 10.35 12.8271 10.35H12.6727C12.3147 10.35 11.9713 10.4923 11.7181 10.7455L11.185 11.2786C11.1508 11.3128 11.1113 11.3412 11.068 11.3629L9.64741 12.0732C9.34251 12.2256 9.1499 12.5373 9.1499 12.8782V13.05C9.1499 13.5471 9.55285 13.95 10.0499 13.95H10.4999C10.7484 13.95 10.9499 14.1515 10.9499 14.4V14.6935Z" fill="#CED2D6"/>
</svg>
