<svg width="19" height="18" viewBox="0 0 19 18" fill="none" xmlns="http://www.w3.org/2000/svg">
<g clip-path="url(#clip0_119_2593)">
<path d="M1.59998 4.24973C2.22672 3.77896 3.00577 3.5 3.84998 3.5H17.35C18.1942 3.5 18.9732 3.77896 19.6 4.24973C19.5998 3.00721 18.5925 2 17.35 2H3.84998C2.60743 2 1.60012 3.00721 1.59998 4.24973Z" fill="black"/>
<path d="M1.59998 7.24973C2.22672 6.77896 3.00577 6.5 3.84998 6.5H17.35C18.1942 6.5 18.9732 6.77896 19.6 7.24973C19.5998 6.00721 18.5925 5 17.35 5H3.84998C2.60743 5 1.60012 6.00721 1.59998 7.24973Z" fill="black"/>
<path d="M7.59998 8C8.15226 8 8.59998 8.44772 8.59998 9C8.59998 10.1046 9.49541 11 10.6 11C11.7045 11 12.6 10.1046 12.6 9C12.6 8.44772 13.0477 8 13.6 8H17.35C18.5926 8 19.6 9.00736 19.6 10.25V15.75C19.6 16.9926 18.5926 18 17.35 18H3.84998C2.60733 18 1.59998 16.9926 1.59998 15.75V10.25C1.59998 9.00736 2.60734 8 3.84998 8H7.59998Z" fill="black"/>
</g>
<defs>
<clipPath id="clip0_119_2593">
<rect width="18" height="18" fill="white" transform="translate(0.599976)"/>
</clipPath>
</defs>
</svg>
