<svg width="19" height="18" viewBox="0 0 19 18" fill="none" xmlns="http://www.w3.org/2000/svg">
<path fill-rule="evenodd" clip-rule="evenodd" d="M16.8 9C16.8 12.9764 13.5764 16.2 9.59996 16.2C5.62351 16.2 2.39996 12.9764 2.39996 9C2.39996 5.02355 5.62351 1.8 9.59996 1.8C13.5764 1.8 16.8 5.02355 16.8 9ZM10.95 14.6935C10.5166 14.7958 10.0646 14.85 9.59996 14.85C7.78495 14.85 6.163 14.0234 5.08999 12.7262L5.5315 11.8432C5.63398 11.6382 5.89289 11.5694 6.08354 11.6966L6.34844 11.8731C6.70247 12.1092 7.17387 12.0625 7.47474 11.7616C7.7138 11.5226 7.79728 11.1689 7.69037 10.8482L7.51242 10.3144C7.47677 10.2074 7.52519 10.0905 7.62603 10.0401L9.40213 9.15203C9.85614 8.92503 10.0085 8.35148 9.72689 7.92914C9.59353 7.7291 9.70594 7.45772 9.94169 7.41057L10.0542 7.38806C10.821 7.2347 11.4469 6.68219 11.6942 5.94029L11.7389 5.80615C11.8467 5.48274 11.7626 5.12619 11.5215 4.88514L10.1818 3.54541C10.0974 3.46101 10.05 3.34655 10.05 3.22721V3.16705C13.0706 3.39683 15.45 5.92055 15.45 9C15.45 9.88402 15.2539 10.7222 14.9028 11.4735C14.7262 11.3515 14.517 11.2732 14.2908 11.2544L13.7818 10.7454C13.5286 10.4922 13.1852 10.35 12.8272 10.35H12.6728C12.3147 10.35 11.9713 10.4922 11.7182 10.7454L11.185 11.2785C11.1508 11.3127 11.1113 11.3412 11.0681 11.3628L9.64747 12.0731C9.34257 12.2256 9.14996 12.5372 9.14996 12.8781V13.05C9.14996 13.5471 9.55291 13.95 10.05 13.95H10.5C10.7485 13.95 10.95 14.1515 10.95 14.4V14.6935Z" fill="#CED2D6"/>
</svg>
