<svg width="436" height="112" viewBox="0 0 436 112" fill="none" xmlns="http://www.w3.org/2000/svg">
<path d="M38.7156 76.7871L44.508 66.4094L38.7156 55.9984L50.2876 35.1998H73.4314L85.0034 55.9984L73.4314 76.8004L38.7156 76.697L32.9361 87.2114L79.2174 87.2014L96.5753 55.9984L79.2174 24.7988H44.5016L27.1437 55.9984L38.7156 76.7871Z" fill="#DAB5FF"/>
<path d="M32.9362 87.2113L15.5719 55.9983L38.7157 14.401H85.0034L108.147 55.9983L85.0034 97.599L27.1438 97.5923L21.3578 108H90.7894L119.719 55.9983L90.7894 4H32.9297L3.99992 55.9983L27.1438 97.5923L32.9362 87.2113Z" fill="#DAB5FF"/>
<path d="M142.863 87.2015V24.7989H164.715C171.262 24.7989 176.74 26.1899 181.144 28.9753C185.547 31.7573 188.852 35.5101 191.054 40.2269C193.256 44.9437 194.358 50.1743 194.358 55.9152C194.358 62.2431 193.143 67.7505 190.716 72.4373C188.289 77.1241 184.86 80.7568 180.427 83.3354C175.994 85.9139 170.758 87.2015 164.715 87.2015H142.863ZM182.584 55.9118C182.584 51.8688 181.877 48.3095 180.465 45.2339C179.054 42.1583 177.02 39.7566 174.368 38.0253C171.713 36.2974 168.495 35.4334 164.711 35.4334H154.547V76.567H164.711C168.607 76.567 171.867 75.6597 174.493 73.8417C177.119 72.027 179.122 69.5652 180.507 66.4596C181.889 63.354 182.584 59.838 182.584 55.9118Z" fill="white"/>
<path d="M248.47 76.567V87.2015H206.717V24.7989H247.708V35.4334H218.405V50.4611H243.645V60.305H218.405V76.5637H248.47V76.567Z" fill="white"/>
<path d="M267.014 24.7989L283.275 72.8743L299.283 24.7989H311.562L288.865 87.2015H277.602L254.735 24.7989H267.014Z" fill="white"/>
<path d="M344.674 87.6419C340.27 87.6419 336.291 86.7645 332.733 85.0066C329.174 83.2486 326.098 80.8635 323.501 77.8446C320.904 74.8291 318.898 71.4299 317.487 67.6504C316.076 63.871 315.368 59.9915 315.368 56.0052C315.368 52.0189 316.117 47.8759 317.612 44.0964C319.107 40.317 321.17 36.9478 323.793 33.989C326.42 31.0301 329.538 28.6884 333.151 26.9571C336.764 25.2292 340.688 24.3652 344.922 24.3652C349.155 24.3652 353.234 25.2759 356.822 27.0905C360.406 28.9086 363.469 31.3403 366.012 34.3859C368.551 37.4348 370.515 40.8307 371.897 44.5801C373.279 48.3295 373.974 52.1991 373.974 56.182C373.974 60.1649 373.254 64.2246 371.814 68.004C370.374 71.7835 368.342 75.1526 365.716 78.1115C363.09 81.0703 359.985 83.3987 356.401 85.1C352.813 86.8012 348.904 87.6485 344.671 87.6485L344.674 87.6419ZM327.226 56.0019C327.226 58.6972 327.622 61.3058 328.412 63.8243C329.203 66.3428 330.344 68.5845 331.842 70.5493C333.337 72.514 335.172 74.0652 337.349 75.206C339.522 76.3502 341.993 76.9206 344.761 76.9206C347.529 76.9206 350.152 76.3202 352.299 75.1193C354.443 73.9184 356.266 72.3206 357.76 70.3291C359.255 68.3376 360.37 66.0826 361.106 63.5608C361.839 61.0422 362.209 58.5237 362.209 56.0019C362.209 53.3065 361.814 50.7146 361.023 48.2228C360.232 45.7343 359.075 43.506 357.551 41.5445C356.028 39.5831 354.192 38.0286 352.045 36.8878C349.898 35.7436 347.442 35.1732 344.677 35.1732C341.913 35.1732 339.441 35.7736 337.268 36.9745C335.095 38.1754 333.26 39.7565 331.762 41.7213C330.264 43.6861 329.136 45.9111 328.374 48.3996C327.612 50.8914 327.23 53.4233 327.23 56.0019H327.226Z" fill="white"/>
<path d="M389.641 24.7989L404.463 47.9126L419.368 24.7989H432.071L411.239 56.4389L431.396 87.2015H418.693L404.466 64.9652L390.322 87.2015H377.532L397.69 56.4389L376.857 24.7989H389.647H389.641Z" fill="white"/>
</svg>
