<svg width="94" height="24" viewBox="0 0 94 24" fill="none" xmlns="http://www.w3.org/2000/svg">
<path d="M8.29611 16.4543L9.53733 14.2305L8.29611 11.9996L10.7758 7.54275H15.7352L18.2149 11.9996L15.7352 16.4572L8.29611 16.435L7.05763 18.6881L16.9751 18.686L20.6946 11.9996L16.9751 5.31396H9.53596L5.81641 11.9996L8.29611 16.4543Z" fill="#DAB5FF"/>
<path d="M7.05756 18.6882L3.33663 11.9997L8.29603 3.08596H18.2148L23.1742 11.9997L18.2148 20.9141L5.81633 20.9127L4.57648 23.1429H19.4547L25.6539 11.9997L19.4547 0.857178H7.05618L0.856934 11.9997L5.81633 20.9127L7.05756 18.6882Z" fill="#DAB5FF"/>
<path d="M30.6133 18.6862V5.31421H35.2958C36.6989 5.31421 37.8726 5.61229 38.8163 6.20915C39.7599 6.80531 40.468 7.60947 40.9399 8.62022C41.4117 9.63096 41.6479 10.7518 41.6479 11.982C41.6479 13.338 41.3876 14.5181 40.8675 15.5224C40.3475 16.5268 39.6125 17.3052 38.6627 17.8577C37.7128 18.4103 36.5907 18.6862 35.2958 18.6862H30.6133ZM39.1249 11.9813C39.1249 11.1149 38.9733 10.3522 38.6709 9.69315C38.3685 9.03409 37.9325 8.51943 37.3643 8.14844C36.7953 7.77817 36.1058 7.59303 35.2951 7.59303H33.1171V16.4074H35.2951C36.1299 16.4074 36.8284 16.213 37.3911 15.8234C37.9539 15.4345 38.383 14.907 38.6799 14.2415C38.9761 13.576 39.1249 12.8226 39.1249 11.9813Z" fill="white"/>
<path d="M53.2433 16.4074V18.6862H44.2964V5.31421H53.08V7.59303H46.8009V10.8133H52.2094V12.9227H46.8009V16.4067H53.2433V16.4074Z" fill="white"/>
<path d="M57.2172 5.31421L60.7018 15.6161L64.1321 5.31421H66.7633L61.8997 18.6862H59.4861L54.5859 5.31421H57.2172Z" fill="white"/>
<path d="M73.8585 18.7805C72.9148 18.7805 72.0621 18.5925 71.2995 18.2158C70.537 17.8391 69.8778 17.328 69.3213 16.6811C68.7647 16.0349 68.3349 15.3065 68.0325 14.4966C67.7302 13.6867 67.5786 12.8554 67.5786 12.0012C67.5786 11.147 67.7391 10.2592 68.0594 9.44931C68.3797 8.63943 68.8219 7.91747 69.384 7.28343C69.9467 6.64939 70.6149 6.14759 71.3891 5.7766C72.1633 5.40633 73.0043 5.22119 73.9115 5.22119C74.8186 5.22119 75.6927 5.41634 76.4615 5.80519C77.2295 6.19477 77.8859 6.71586 78.4307 7.36849C78.9749 8.02183 79.3958 8.74951 79.692 9.55296C79.9881 10.3564 80.1369 11.1856 80.1369 12.0391C80.1369 12.8926 79.9826 13.7625 79.674 14.5724C79.3655 15.3823 78.9301 16.1042 78.3674 16.7383C77.8046 17.3723 77.1392 17.8712 76.3712 18.2358C75.6025 18.6003 74.7649 18.7819 73.8578 18.7819L73.8585 18.7805ZM70.1196 12.0005C70.1196 12.578 70.2043 13.137 70.3738 13.6767C70.5432 14.2164 70.7878 14.6968 71.1087 15.1178C71.429 15.5388 71.8223 15.8712 72.2887 16.1157C72.7543 16.3608 73.284 16.4831 73.8771 16.4831C74.4701 16.4831 75.0322 16.3544 75.4923 16.0971C75.9517 15.8397 76.3423 15.4973 76.6626 15.0706C76.9829 14.6439 77.2219 14.1606 77.3796 13.6202C77.5367 13.0806 77.6159 12.5409 77.6159 12.0005C77.6159 11.4229 77.5312 10.8675 77.3617 10.3335C77.1923 9.80028 76.9443 9.32279 76.6178 8.90248C76.2913 8.48217 75.898 8.14906 75.4379 7.9046C74.9778 7.65942 74.4515 7.53718 73.8591 7.53718C73.2668 7.53718 72.7371 7.66585 72.2715 7.92318C71.8058 8.18052 71.4125 8.51934 71.0915 8.94036C70.7705 9.36139 70.5288 9.83817 70.3655 10.3714C70.2023 10.9054 70.1203 11.4479 70.1203 12.0005H70.1196Z" fill="white"/>
<path d="M83.4943 5.31421L86.6703 10.2671L89.8643 5.31421H92.5865L88.1223 12.0942L92.4418 18.6862H89.7197L86.671 13.9213L83.6403 18.6862H80.8995L85.219 12.0942L80.7549 5.31421H83.4956H83.4943Z" fill="white"/>
</svg>
