<svg width="92" height="80" viewBox="0 0 92 80" fill="none" xmlns="http://www.w3.org/2000/svg">
<path fill-rule="evenodd" clip-rule="evenodd" d="M24.2855 2.85718H67.1427L88.5712 40.0346L67.1427 77.2119H15.7141L20.0069 69.7898L2.85693 40.0346L24.2855 2.85718ZM28.5712 69.7779H62.8569V69.7803L79.9998 40.0369L62.8569 10.2936H28.5712L11.4284 40.0346L24.2903 62.351L19.9998 69.7707H28.5665L28.5712 69.7779ZM58.5712 62.3439H37.0593L37.0688 62.3534H24.2903L28.5688 54.9027L19.9998 40.037L32.8569 17.73H58.5712L71.4284 40.037L58.5712 62.3439ZM37.1427 25.1665L28.5712 40.037L32.8617 47.4805L28.5712 54.8979H37.1379L37.1427 54.9074H54.2855L62.8569 40.037L54.2855 25.1665H37.1427Z" fill="#DAB5FF"/>
</svg>
