<svg width="94" height="24" viewBox="0 0 94 24" fill="none" xmlns="http://www.w3.org/2000/svg">
<path d="M8.29621 16.4544L9.53744 14.2306L8.29621 11.9997L10.7759 7.54281H15.7353L18.215 11.9997L15.7353 16.4572L8.29621 16.4351L7.05774 18.6882L16.9752 18.686L20.6947 11.9997L16.9752 5.31402H9.53606L5.81651 11.9997L8.29621 16.4544Z" fill="#DAB5FF"/>
<path d="M7.05775 18.6881L3.33683 11.9996L8.29622 3.08593H18.215L23.1744 11.9996L18.215 20.9141L5.81652 20.9126L4.57667 23.1429H19.4549L25.6541 11.9996L19.4549 0.857143H7.05637L0.857126 11.9996L5.81652 20.9126L7.05775 18.6881Z" fill="#DAB5FF"/>
<path d="M30.6135 18.686V5.31405H35.296C36.6991 5.31405 37.8728 5.61212 38.8165 6.20899C39.7602 6.80515 40.4683 7.60931 40.9401 8.62006C41.4119 9.6308 41.6482 10.7516 41.6482 11.9818C41.6482 13.3378 41.3878 14.518 40.8678 15.5223C40.3477 16.5266 39.6128 17.305 38.6629 17.8576C37.713 18.4101 36.591 18.686 35.296 18.686H30.6135ZM39.1251 11.9811C39.1251 11.1148 38.9735 10.352 38.6712 9.69299C38.3688 9.03393 37.9328 8.51927 37.3645 8.14828C36.7955 7.77801 36.106 7.59287 35.2953 7.59287H33.1173V16.4072H35.2953C36.1302 16.4072 36.8286 16.2128 37.3914 15.8232C37.9541 15.4344 38.3832 14.9068 38.6801 14.2413C38.9763 13.5759 39.1251 12.8224 39.1251 11.9811Z" fill="white"/>
<path d="M53.2435 16.4072V18.686H44.2966V5.31405H53.0803V7.59287H46.8011V10.8131H52.2096V12.9225H46.8011V16.4065H53.2435V16.4072Z" fill="white"/>
<path d="M57.2172 5.31405L60.7019 15.6159L64.1321 5.31405H66.7634L61.8997 18.686H59.4861L54.586 5.31405H57.2172Z" fill="white"/>
<path d="M73.8588 18.7804C72.9151 18.7804 72.0624 18.5924 71.2999 18.2157C70.5374 17.839 69.8782 17.3279 69.3216 16.681C68.7651 16.0348 68.3352 15.3064 68.0329 14.4965C67.7305 13.6866 67.5789 12.8553 67.5789 12.0011C67.5789 11.1469 67.7394 10.2591 68.0597 9.44923C68.38 8.63935 68.8222 7.91739 69.3843 7.28335C69.947 6.64931 70.6152 6.14751 71.3894 5.77652C72.1636 5.40625 73.0047 5.22112 73.9118 5.22112C74.819 5.22112 75.6931 5.41626 76.4618 5.80512C77.2298 6.19469 77.8862 6.71579 78.4311 7.36841C78.9752 8.02175 79.3961 8.74943 79.6923 9.55288C79.9885 10.3563 80.1372 11.1855 80.1372 12.039C80.1372 12.8925 79.9829 13.7624 79.6744 14.5723C79.3658 15.3822 78.9305 16.1041 78.3677 16.7382C77.8049 17.3722 77.1396 17.8712 76.3715 18.2357C75.6028 18.6003 74.7652 18.7818 73.8581 18.7818L73.8588 18.7804ZM70.1199 12.0004C70.1199 12.578 70.2047 13.137 70.3741 13.6766C70.5436 14.2163 70.7881 14.6967 71.1091 15.1177C71.4294 15.5387 71.8227 15.8711 72.289 16.1156C72.7546 16.3608 73.2843 16.483 73.8774 16.483C74.4704 16.483 75.0325 16.3543 75.4926 16.097C75.9521 15.8397 76.3426 15.4973 76.6629 15.0705C76.9832 14.6438 77.2222 14.1606 77.3799 13.6202C77.537 13.0805 77.6162 12.5408 77.6162 12.0004C77.6162 11.4228 77.5315 10.8674 77.362 10.3335C77.1926 9.80021 76.9446 9.32271 76.6181 8.9024C76.2916 8.48209 75.8983 8.14899 75.4382 7.90452C74.9781 7.65934 74.4518 7.53711 73.8595 7.53711C73.2671 7.53711 72.7374 7.66578 72.2718 7.92311C71.8061 8.18044 71.4128 8.51926 71.0918 8.94029C70.7709 9.36131 70.5291 9.83809 70.3658 10.3713C70.2026 10.9053 70.1206 11.4478 70.1206 12.0004H70.1199Z" fill="white"/>
<path d="M83.4945 5.31405L86.6705 10.267L89.8645 5.31405H92.5867L88.1226 12.094L92.442 18.686H89.7199L86.6712 13.9211L83.6405 18.686H80.8997L85.2192 12.094L80.7551 5.31405H83.4958H83.4945Z" fill="white"/>
</svg>
